<svg
  id="Layer_1"
  data-name="Layer 1"
  xmlns="http://www.w3.org/2000/svg"
  viewBox="0 0 400 334"
>
<g style="fill: floralwhite; transform: translateX(-50px)">
  <path
    d="M269,75.86c-3.9,23.12-10.71,44.49-23.11,46.88-5.83,1.12-9.23-3.88-7.9-13.65,1.75-12.29,6.37-29,10.56-50.63-7.74,2.52-14.24,4.8-20.2,7.23-.07,3.61-.2,7.62-.63,12.08-2.53,28.26-4,47.31-14.18,51.84-8.89,3.9-17.27,2.43-22.6-7.86s-7.25-25.6-2.3-28c5.19-2.41,9.85,7.74,14.52,18.67,2.36-12.41,5-26.55,7.38-38.45-1.64.83-3.4,1.68-5,2.64-7.9,4.35-12.38.46-6.67-8.61a56.2,56.2,0,0,1,15.34-15.81,19.3,19.3,0,0,0,.47-2.92c1-8.81,5.13-10.76,8.09-10,1.21.28,2.51,2.35,3.64,6.24a67.52,67.52,0,0,1,20.47-5.87C265.12,37.53,273.91,47.15,269,75.86Z"
  />
  <path
    d="M277.23,59.73c4.88-15.67,14.64-22.5,20.21-22.4,5.94.07,4.25,8.88.6,21.58-4.39,15.39-9,26.75-16.17,27.12S272.24,75.79,277.23,59.73Z"
  />
  <path
    d="M326.19,73.22C323.05,86.32,315.11,112.93,305,128c-4.14,6.22-10,7.53-15.67,6.58-6.76-1.14-11.87-4.71-13.11-16.41-1-9.16,4.73-30.21,10.12-29.4,5.14.79,2.24,9.61,3.31,24.34,7.42-15.14,13.86-35.26,16.77-46.6,5.87-23.44,9.6-31.45,17.19-31.4C331.61,35.22,332.62,46.4,326.19,73.22Z"
  />
  <path
    d="M403.32,21.89c-.74,5.35-5.7,9.52-22.11,7.58-.71,8.25-3.22,25.83-5.89,42.77,5.54-.41,10.76,2.86,9.53,8.36-.81,4-3.78,7.65-12.56,8.86a169.78,169.78,0,0,1-4.52,20.33c-5,15.43-20.67,23.31-29.95,10A69.2,69.2,0,0,1,326,86.42c-.29-5.55,2.26-7.7,8.55-8.28,2.89-.27,10.8-1.44,18.83-2.61,5.66-25.19,9.56-45.11,10.91-50.87,2-8.44,3.34-11.29,9-11.59s21,.06,24.17.53S404.05,16.42,403.32,21.89ZM350,90.37c-4.16.21-7.57.26-10,.39,1.53,5.1,3.46,10.82,5.8,16.89C347.26,101.76,348.61,96,350,90.37Z"
  />
  <path
    d="M433.22,106.69c-10.08,20.24-22.87,19.76-39.18,9.85-17-10.25-16.45-17.48-14.13-21.52,2.21-3.78,7.07-2.64,29.33,7.47,7.21-12.13,17.23-36.15,17.29-44.75a167.77,167.77,0,0,0-32.27,11.65c-8.15,3.83-11.22-1.82-4.84-10.62,9.08-12.6,32.83-25.33,47.19-16.33C448.63,50,443.29,86.33,433.22,106.69Z"
  />
  <path
    d="M189.19,161.47c-7.07,22.36-16.77,42.58-29.38,43.23-5.93.3-8.61-5.12-5.94-14.61,3.43-11.93,10.32-27.83,17.47-48.68-8,1.42-14.77,2.78-21,4.37-.57,3.57-1.26,7.52-2.3,11.87-6.41,27.63-10.51,46.3-21.22,49.38-9.35,2.63-17.44,0-21.29-10.91s-3.63-26.36,1.59-28c5.47-1.67,8.68,9,11.8,20.5,4.06-12,8.67-25.6,12.63-37.05-1.74.59-3.6,1.2-5.34,1.92-8.43,3.21-12.33-1.26-5.42-9.45a56.22,56.22,0,0,1,17.38-13.53,19.3,19.3,0,0,0,.87-2.83c2.21-8.58,6.57-9.94,9.41-8.83,1.16.45,2.16,2.67,2.74,6.68a67.52,67.52,0,0,1,21.08-3C190.62,123,198,133.71,189.19,161.47Z"
  />
  <path
    d="M195.88,163.77c4.88-15.67,14.64-22.5,20.21-22.4,5.94.07,4.25,8.88.6,21.58-4.39,15.39-9,26.75-16.17,27.12S190.89,179.83,195.88,163.77Z"
  />
  <path
    d="M286.63,177.12c-7.07,22.36-17,43.35-29.59,44-5.93.3-8.61-5.12-5.93-14.61,3.42-12.06,10.53-28.73,17.79-49.71-14.17,2.25-24.25,5.29-37.88,10.55-8.43,3.21-12.2-1.27-5.42-9.45,10.95-13.2,29.18-20.08,44.11-19.71C288.06,138.62,295.44,149.36,286.63,177.12Z"
  />
  <path
    d="M297.68,167.26c12.52-36.8,22.75-41.87,27.66-42.13,6.56-.34,2.86,16.29-4,40.91-9.37,34-13,41.25-20.86,41.65C293.2,208.06,286.6,200.06,297.68,167.26Z"
  />
  <path
    d="M361.52,170c-1.71,13.36-6.75,40.67-15.15,56.78-3.45,6.62-9.17,8.56-14.87,8.22-6.85-.41-12.31-3.41-14.8-14.91-2-9,1.46-30.54,6.91-30.31,5.2.24,3.26,9.31,5.9,23.84,5.76-15.84,10-36.54,11.68-48.13,3.32-23.93,6.17-32.3,13.72-33.07C362.83,131.67,365,142.68,361.52,170Z"
  />
  <path
    d="M126.69,231.54c-1.57,13.73-17.05,19.84-29.72,24.28,3.12,11.59,1.07,15.87-6.1,16.62-10.56,1-13.16-15-2.28-24.66,5.08-4.43,12.53-9.49,17.43-14.93-4.76-1.52-11.12-2.34-19.87-2.9-3.54,9.79-7.93,17.85-13.47,18.26-6.42.46-9.59-9.49-2.34-20.86,5.62-8.76,18.09-17,35.91-14.61C124.46,215.23,127.57,224,126.69,231.54Zm-25.77,59.22c-.52,7.1-6.41,13-13.09,13.31s-11.76-5-11.11-12.07,6.4-13.1,13.09-13.44S101.43,283.53,100.92,290.76Z"
  />
  <path
    d="M129.33,283c10.21,4.28,26.7-6.81,33.21-10.56s9.8-3.54,11.72-.73c2.05,3.05.12,7.33-5.85,14-18.65,20.68-42.11,26.69-54.45,5.46-12.62-21.72,7.78-42.87,41.91-57.65-13.29-12.71-21.4-25.32-14-31.39,4-3.24,14,6.61,32.1,24.51,9.85,9.73,9.78,13.28-1.64,19.68C166.66,249.33,130.62,268.76,129.33,283Z"
  />
  <path
    d="M236.58,269.5c-7.07,22.36-17,43.35-29.59,44-5.93.3-8.61-5.12-5.93-14.61,3.42-12.06,10.53-28.73,17.79-49.71-14.17,2.25-24.25,5.29-37.88,10.55-8.43,3.21-12.2-1.27-5.42-9.45,10.95-13.2,29.18-20.08,44.11-19.71C238,231,245.39,241.74,236.58,269.5Z"
  />
  <path
    d="M299.54,291.92c-13.69,23.84-42.77,33.55-56.1,22.61-20.33-16.78-5.32-46.87,13.81-55.82,17.16-8,24.53-2.27,21.52,10.52-1.65,7.16-6.88,18.68-11.9,16.79-3.09-1.1-3.83-8-3.22-15.89-7,9-11.88,22.1-9.37,31.7,19.93-3.3,38.12-25.6,43.9-63.19-16.17-2.2-36.2,8.82-42.34,12.42-5.89,3.46-13.29-.33-4.84-10.62,12.25-15,41.19-27.4,55-18.89S315.9,263.39,299.54,291.92Z"
  />
  <path
    d="M181.16,215.73c-.41-1.43,2.58-3.82,8.14-5.21,5-1.25,6.8-.27,6.76,1.81,0,1.77-2.23,2.75-7.46,3.63C183.55,216.8,181.47,216.79,181.16,215.73Z"
  />
  <path
    d="M198.2,211.64c2.31-11.43,5.16-13.33,6.62-13.59,1.94-.35,1.47,4.74.39,12.32-1.49,10.47-2.3,12.77-4.61,13.19C198.44,224,196.16,221.82,198.2,211.64Z"
  />
  <path
    d="M218.93,209c4.6,4.13,7.51,7.68,7.29,9.22s-3.85,1.24-10.81-3.77a11.48,11.48,0,0,1-1.72-1.42c-1.23,6.8-1.92,8.51-3.86,8.86-2.16.39-4.62-1.7-2.39-11.92,2.55-11.82,5.49-14.08,6.94-14.35,1.68-.3,1.49,3.77.53,10.1.72-.9,1.58-1.9,2.44-2.91,3.5-4.06,8-6.6,9.13-5.47S224.79,201,218.93,209Z"
  />
  <path
    d="M227.92,207.25c-.41-1.43,2.58-3.82,8.14-5.21,5-1.25,6.8-.27,6.76,1.81,0,1.77-2.23,2.75-7.46,3.63C230.31,208.31,228.23,208.31,227.92,207.25Z"
  />
  </g>
</svg>
