<svg xmlns="http://www.w3.org/2000/svg" viewBox="0 0 64 64" x="0px" y="0px">
  <g style="fill: #eb4034">
    <path
      d="M32,2A30,30,0,1,0,62,32,30.034,30.034,0,0,0,32,2ZM57.063,19.536l-5.972,10.44-4.132-7.157L36.532,4.372A28.077,28.077,0,0,1,57.063,19.536ZM40.976,47.545H23.024L14.05,32l8.129-14.081.846-1.464H40.976l4.276,7.408,4.64,8.209L48.158,35.1ZM32,4c.7,0,1.388.034,2.073.085l5.862,10.37H10.2A27.955,27.955,0,0,1,32,4ZM8.725,16.455h11.99L5.9,42.112A27.921,27.921,0,0,1,8.725,16.455ZM6.9,44.383l5.971-10.341L27.753,59.678A28.075,28.075,0,0,1,6.9,44.383ZM32,60c-.6,0-1.193-.025-1.783-.063L24.183,49.545H53.8A27.955,27.955,0,0,1,32,60ZM55.275,47.545H43.346l6.542-11.437L51.971,32.5a.992.992,0,0,0,.05-.121L58.07,21.8a27.92,27.92,0,0,1-2.8,25.741Z"
    />
    <path
      d="M32,27.5A4.5,4.5,0,1,0,36.5,32,4.505,4.505,0,0,0,32,27.5Zm0,7A2.5,2.5,0,1,1,34.5,32,2.5,2.5,0,0,1,32,34.5Z"
    />
    <path
      d="M42.276,25.931a5.353,5.353,0,0,0-4.589-1.262,5.35,5.35,0,0,0-2.822-4.283l-.258-.137a5.352,5.352,0,0,0-7.822,4.077,5.344,5.344,0,0,0-4.946,1.36l-.209.2a5.353,5.353,0,0,0,1.46,8.7,5.346,5.346,0,0,0-.236,5.121l.129.265A5.339,5.339,0,0,0,31,41.9v3.185h2V42.362a5.331,5.331,0,0,0,2.757.772,5.411,5.411,0,0,0,.749-.053l.292-.041a5.351,5.351,0,0,0,3.931-7.9,5.352,5.352,0,0,0,3.2-4.007l.049-.286A5.329,5.329,0,0,0,42.276,25.931Zm-.265,4.576-.05.287a3.359,3.359,0,0,1-3.033,2.757,1,1,0,0,0-.6,1.726,3.355,3.355,0,0,1-1.812,5.783l-.291.041a3.359,3.359,0,0,1-3.56-2.033,1,1,0,0,0-.9-.612h-.02a1,1,0,0,0-.906.577,3.356,3.356,0,0,1-6.059.062l-.129-.265a3.358,3.358,0,0,1,.833-4.013,1,1,0,0,0-.531-1.749,3.355,3.355,0,0,1-1.929-5.745l.209-.2a3.357,3.357,0,0,1,4.075-.447,1,1,0,0,0,1.5-1.046,3.355,3.355,0,0,1,4.867-3.61l.258.136a3.361,3.361,0,0,1,1.685,3.739,1,1,0,0,0,1.458,1.1,3.354,3.354,0,0,1,4.937,3.513Z"
    />
  </g>
</svg>
